HIERARCHY
ROOT Hips
{
	OFFSET 0.000000 0.000000 0.000000
	CHANNELS 6 Xposition Yposition Zposition Zrotation Yrotation Xrotation 
	JOINT LHipJoint
	{
		OFFSET 0.000000 0.000000 0.000000
		CHANNELS 3 Zrotation Yrotation Xrotation
		JOINT LeftUpLeg
		{
			OFFSET 1.363060 -1.794630 0.839290
			CHANNELS 3 Zrotation Yrotation Xrotation
			JOINT LeftLeg
			{
				OFFSET 2.448110 -6.726130 0.000000
				CHANNELS 3 Zrotation Yrotation Xrotation
				JOINT LeftFoot
				{
					OFFSET 2.562200 -7.039590 0.000000
					CHANNELS 3 Zrotation Yrotation Xrotation
					JOINT LeftToeBase
					{
						OFFSET 0.157640 -0.433110 2.322550
						CHANNELS 3 Zrotation Yrotation Xrotation
						End Site
						{
							OFFSET 0.000000 0.000000 0.000000
						}
					}
				}
			}
		}
	}
	JOINT RHipJoint
	{
		OFFSET 0.000000 0.000000 0.000000
		CHANNELS 3 Zrotation Yrotation Xrotation
		JOINT RightUpLeg
		{
			OFFSET -1.305520 -1.794630 0.839290
			CHANNELS 3 Zrotation Yrotation Xrotation
			JOINT RightLeg
			{
				OFFSET -2.542530 -6.985550 0.000000
				CHANNELS 3 Zrotation Yrotation Xrotation
				JOINT RightFoot
				{
					OFFSET -2.568260 -7.056230 0.000000
					CHANNELS 3 Zrotation Yrotation Xrotation
					JOINT RightToeBase
					{
						OFFSET -0.164730 -0.452590 2.363150
						CHANNELS 3 Zrotation Yrotation Xrotation
						End Site
						{
							OFFSET 0.000000 0.000000 0.000000
						}
					}
				}
			}
		}
	}
	JOINT LowerBack
	{
		OFFSET 0.000000 0.000000 0.000000
		CHANNELS 3 Zrotation Yrotation Xrotation
		JOINT Spine
		{
			OFFSET 0.028270 2.035590 -0.193380
			CHANNELS 3 Zrotation Yrotation Xrotation
			JOINT Spine1
			{
				OFFSET 0.056720 2.048850 -0.042750
				CHANNELS 3 Zrotation Yrotation Xrotation
				JOINT Neck
				{
					OFFSET 0.000000 0.000000 0.000000
					CHANNELS 3 Zrotation Yrotation Xrotation
					JOINT Neck1
					{
						OFFSET -0.054170 1.746240 0.172020
						CHANNELS 3 Zrotation Yrotation Xrotation
						JOINT Head
						{
							OFFSET 0.104070 1.761360 -0.123970
							CHANNELS 3 Zrotation Yrotation Xrotation
							End Site
							{
								OFFSET 0.000000 0.000000 0.000000
							}
						}
					}
				}
				JOINT LeftShoulder
				{
					OFFSET 0.000000 0.000000 0.000000
					CHANNELS 3 Zrotation Yrotation Xrotation
					JOINT LeftArm
					{
						OFFSET 3.362410 1.200890 -0.311210
						CHANNELS 3 Zrotation Yrotation Xrotation
						JOINT LeftForeArm
						{
							OFFSET 4.983000 -0.000000 -0.000000
							CHANNELS 3 Zrotation Yrotation Xrotation
							JOINT LeftHand
							{
								OFFSET 3.483560 -0.000000 -0.000000
								CHANNELS 3 Zrotation Yrotation Xrotation
								JOINT LeftFingerBase
								{
									OFFSET 0.000000 0.000000 0.000000
									CHANNELS 3 Zrotation Yrotation Xrotation
									JOINT LeftHandIndex1
									{
										OFFSET 0.715260 -0.000000 -0.000000
										CHANNELS 3 Zrotation Yrotation Xrotation
										End Site
										{
											OFFSET 0.000000 0.000000 0.000000
										}
									}
								}
								JOINT LThumb
								{
									OFFSET 0.000000 0.000000 0.000000
									CHANNELS 3 Zrotation Yrotation Xrotation
									End Site
									{
										OFFSET 0.000000 0.000000 0.000000
									}
								}
							}
						}
					}
				}
				JOINT RightShoulder
				{
					OFFSET 0.000000 0.000000 0.000000
					CHANNELS 3 Zrotation Yrotation Xrotation
					JOINT RightArm
					{
						OFFSET -3.136600 1.374050 -0.404650
						CHANNELS 3 Zrotation Yrotation Xrotation
						JOINT RightForeArm
						{
							OFFSET -5.241900 -0.000000 -0.000000
							CHANNELS 3 Zrotation Yrotation Xrotation
							JOINT RightHand
							{
								OFFSET -3.444170 -0.000000 -0.000000
								CHANNELS 3 Zrotation Yrotation Xrotation
								JOINT RightFingerBase
								{
									OFFSET 0.000000 0.000000 0.000000
									CHANNELS 3 Zrotation Yrotation Xrotation
									JOINT RightHandIndex1
									{
										OFFSET -0.622530 -0.000000 -0.000000
										CHANNELS 3 Zrotation Yrotation Xrotation
										End Site
										{
											OFFSET 0.000000 0.000000 0.000000
										}
									}
								}
								JOINT RThumb
								{
									OFFSET 0.000000 0.000000 0.000000
									CHANNELS 3 Zrotation Yrotation Xrotation
									End Site
									{
										OFFSET 0.000000 0.000000 0.000000
									}
								}
							}
						}
					}
				}
			}
		}
	}
}
MOTION
Frames: 7
Frame Time: 0.008333
-39.494651 18.061630 -2.320152 -7.045279 79.426624 -3.768412 -3.270753 0.086906 0.772495 -3.019110 -7.996826 -17.289169 -2.504210 6.514861 18.226371 4.014165 -3.246654 19.798352 0.024500 -1.010200 -2.777000 3.540662 -1.834393 2.482020 15.708798 12.812896 -4.548497 2.263227 -6.543096 19.572033 -0.907893 -0.512374 -6.938381 -0.808400 -5.737800 16.025500 2.018812 -1.085548 13.484018 5.090135 -0.864164 7.819763 1.748522 0.352809 -0.986336 -3.644433 5.230623 -11.042889 -0.581214 7.184043 1.000960 -1.438300 3.365000 1.412700 -1.192791 -5.352779 0.345818 -81.664097 13.516514 29.758087 24.712392 -35.542501 -10.446464 1.188403 -1.740653 -3.722079 -24.118706 21.069599 -10.361400 -7.125000 0.000000 0.000000 -49.310800 46.640000 -2.646400 2.306178 6.209164 2.632215 62.139942 -11.470348 46.476524 -23.152905 31.247167 -6.969927 0.610367 1.130940 1.624404 8.635274 -19.371199 -2.849300 7.125000 0.000000 0.000000 34.408100 -47.327600 -2.232700 
-39.493117 18.063676 -2.319129 -7.296548 79.484441 -4.043889 -3.264197 0.091141 0.774441 -2.990192 -8.023091 -17.262494 -2.505234 6.510587 18.221252 4.026354 -3.273542 19.825576 0.024800 -1.017000 -2.795700 3.546708 -1.838755 2.483473 15.755290 12.835656 -4.504160 2.272551 -6.526648 19.525197 -0.892099 -0.554540 -6.942509 -0.829800 -5.811500 16.238500 2.095799 -1.030992 13.422843 5.091244 -0.784378 7.817291 1.712159 0.392812 -0.942873 -3.299741 5.343082 -10.763860 -1.051717 7.308508 0.821273 -1.622400 3.423200 1.343700 -1.205082 -5.352279 0.348978 -81.616210 13.525421 29.903561 24.627387 -35.461910 -10.388151 1.188725 -1.743400 -3.699859 -24.114736 21.080629 -10.365600 -7.125000 0.000000 0.000000 -49.318400 46.650400 -2.663500 2.296554 6.215831 2.630642 62.309971 -11.678869 46.163935 -22.934135 31.019084 -6.825619 0.604786 1.084258 1.980099 7.953116 -18.667355 -2.517800 7.125000 0.000000 0.000000 33.418000 -46.783300 -1.652600 
-39.490662 18.061732 -2.318822 -7.407741 79.523616 -4.168876 -3.258419 0.091358 0.767377 -2.989690 -8.031224 -17.263129 -2.504123 6.518974 18.242568 4.035329 -3.299393 19.833503 0.024600 -1.012200 -2.782200 3.544427 -1.846484 2.498570 15.785840 12.759662 -4.443882 2.277763 -6.508710 19.484222 -0.896184 -0.547459 -6.985672 -0.832500 -5.820700 16.265000 2.130613 -0.980299 13.376574 5.085206 -0.715675 7.802263 1.694685 0.426704 -0.922848 -2.910632 5.464271 -10.499184 -1.570596 7.448917 0.647386 -1.828400 3.489500 1.283700 -1.215638 -5.345786 0.350176 -81.625483 13.577329 29.917949 24.541068 -35.380275 -10.329703 1.186612 -1.742945 -3.551316 -24.057240 20.921093 -10.272300 -7.125000 0.000000 0.000000 -49.158700 46.536800 -2.469900 2.284040 6.225411 2.631071 62.465014 -11.880589 45.962645 -22.793127 30.883629 -6.752352 0.616729 1.065902 2.270722 7.710274 -18.646291 -2.427500 7.125000 0.000000 0.000000 33.186700 -46.785300 -1.640100 
-39.486877 18.060403 -2.319538 -7.374592 79.559281 -4.165916 -3.259537 0.096676 0.767928 -3.013413 -8.038273 -17.237323 -2.504965 6.525174 18.259794 4.047859 -3.346100 19.794772 0.025300 -1.027200 -2.823500 3.539510 -1.856470 2.512011 15.786023 12.705525 -4.382502 2.282217 -6.492192 19.446527 -0.891270 -0.562854 -6.995389 -0.825700 -5.797600 16.198300 2.126207 -0.956859 13.323672 5.103628 -0.686875 7.806603 1.718759 0.440842 -0.880418 -2.733521 5.615231 -10.248976 -1.933919 7.638505 0.504661 -1.956400 3.583000 1.225600 -1.224490 -5.347373 0.349583 -81.702623 13.572552 29.928744 24.425944 -35.266519 -10.249027 1.184263 -1.744389 -3.515644 -23.981672 20.896823 -10.227400 -7.125000 0.000000 0.000000 -49.087000 46.530900 -2.454600 2.276880 6.229326 2.632131 62.526177 -12.010545 45.784279 -22.674551 30.775198 -6.706534 0.637827 1.061147 2.476584 7.616131 -18.956387 -2.425000 7.125000 0.000000 0.000000 33.263500 -47.062900 -1.898500 
-39.481149 18.062960 -2.320561 -7.530896 79.597620 -4.338879 -3.256080 0.101498 0.768437 -3.008469 -8.065749 -17.207436 -2.501566 6.533502 18.285775 4.052388 -3.365435 19.773602 0.025400 -1.028100 -2.826200 3.542541 -1.860231 2.518167 15.795543 12.676569 -4.362495 2.291825 -6.471825 19.392449 -0.863112 -0.616273 -6.831988 -0.799900 -5.708500 15.940800 2.149676 -0.948844 13.313908 5.114988 -0.671746 7.764528 1.730952 0.445843 -0.903502 -2.431594 5.763322 -9.993546 -2.453079 7.832190 0.389033 -2.149700 3.678700 1.185000 -1.234300 -5.336897 0.347377 -81.784695 13.675086 29.879145 24.345431 -35.189729 -10.192076 1.180144 -1.745442 -3.482685 -23.828302 20.870159 -10.145100 -7.125000 0.000000 0.000000 -48.957000 46.535200 -2.450600 2.266705 6.237696 2.637365 62.570737 -12.157826 45.802774 -22.611592 30.682373 -6.631235 0.673277 0.970095 2.605216 5.823808 -18.753960 -1.764400 7.125000 0.000000 0.000000 31.543300 -47.054800 -1.771400 
-39.476750 18.063062 -2.321277 -7.669257 79.637412 -4.498424 -3.251534 0.104488 0.766710 -3.007554 -8.079542 -17.190221 -2.499717 6.541046 18.308739 4.062685 -3.399174 19.760705 0.026000 -1.041200 -2.862300 3.542425 -1.866074 2.528042 15.815735 12.626865 -4.323668 2.297652 -6.456095 19.354254 -0.853484 -0.632344 -6.771848 -0.792000 -5.680800 15.860900 2.178126 -0.930937 13.289657 5.120053 -0.644291 7.739306 1.730035 0.458546 -0.902862 -2.149321 5.907759 -9.727806 -2.908510 8.013432 0.244539 -2.324400 3.768900 1.132800 -1.243640 -5.331516 0.346609 -81.840793 13.737686 29.849404 24.252483 -35.100078 -10.127941 1.177130 -1.746420 -3.423247 -23.723650 20.821980 -10.077000 -7.125000 0.000000 0.000000 -48.846500 46.515000 -2.409800 2.257070 6.244444 2.639845 62.650024 -12.306936 45.712074 -22.507600 30.576179 -6.572568 0.690066 0.940246 2.784243 5.294385 -18.770241 -1.577800 7.125000 0.000000 0.000000 31.069800 -47.117100 -1.791500 
-39.472249 18.062755 -2.322198 -7.831479 79.678906 -4.686555 -3.245434 0.107695 0.764168 -3.005813 -8.095309 -17.173312 -2.496184 6.552593 18.342422 4.073864 -3.437269 19.740847 0.026800 -1.056400 -2.904000 3.542535 -1.873324 2.539507 15.840766 12.579001 -4.274933 2.304219 -6.438529 19.311765 -0.841074 -0.656720 -6.714721 -0.782000 -5.645600 15.759600 2.208074 -0.920345 13.283589 5.122835 -0.625211 7.708319 1.727167 0.467098 -0.917121 -1.879534 6.056572 -9.457642 -3.349129 8.200688 0.096588 -2.494700 3.863000 1.079400 -1.252515 -5.326081 0.345432 -81.902877 13.810189 29.793642 24.158441 -35.009477 -10.063576 1.173922 -1.747278 -3.363977 -23.611797 20.774449 -10.006100 -7.125000 0.000000 0.000000 -48.731000 46.496300 -2.371200 2.247710 6.250413 2.642575 62.718509 -12.447456 45.659635 -22.413677 30.483350 -6.524499 0.704983 0.921166 2.930956 4.954702 -18.856506 -1.462500 7.125000 0.000000 0.000000 30.802800 -47.223900 -1.861700 
